<?xml version='1.0' encoding='UTF-8' standalone='no'?>
<svg viewBox="0 0 759 1440" xmlns="http://www.w3.org/2000/svg" version="1.2" xmlns:cc="http://creativecommons.org/ns#" xmlns:xlink="http://www.w3.org/1999/xlink" height="121.92mm" baseProfile="tiny" width="64.262mm">
 <defs/>
 <g fill-rule="evenodd" fill="none" stroke="black" stroke-width="1" stroke-linejoin="bevel" stroke-linecap="square">
  <g font-size="32.9167" font-family="MS Shell Dlg 2" font-weight="400" transform="matrix(1,0,0,1,0,0)" fill="none" font-style="normal" stroke="#000000" stroke-width="1" stroke-linejoin="bevel" stroke-linecap="square" stroke-opacity="1"/>
  <g font-size="32.9167" font-family="MS Shell Dlg 2" font-weight="400" transform="matrix(1,0,0,1,0,0)" fill="none" font-style="normal" stroke="#000000" stroke-width="1" stroke-linejoin="bevel" stroke-linecap="square" stroke-opacity="1"/>
  <g font-size="32.9167" font-family="MS Shell Dlg 2" font-weight="400" transform="matrix(11.8008,0,0,11.8008,-28.7006,0)" fill="none" font-style="normal" stroke="#000000" stroke-width="1" stroke-linejoin="bevel" stroke-linecap="square" stroke-opacity="1"/>
  <g font-size="32.9167" font-family="MS Shell Dlg 2" font-weight="400" transform="matrix(0.999136,0,0,0.999136,-28.7006,0)" fill="none" font-style="normal" stroke="#000000" stroke-width="1" stroke-linejoin="bevel" stroke-linecap="square" stroke-opacity="1"/>
  <g font-size="32.9167" font-family="MS Shell Dlg 2" fill-opacity="1" font-weight="400" transform="matrix(0.999136,0,0,0.999136,-28.7006,0)" fill="#ffffff" font-style="normal" stroke="none">
   <path fill-rule="evenodd" vector-effect="none" d="M-2,-2 L3510,-2 L3510,2483 L-2,2483 L-2,-2"/>
  </g>
  <g font-size="32.9167" font-family="MS Shell Dlg 2" font-weight="400" transform="matrix(0.999136,0,0,0.999136,-28.7006,0)" fill="none" font-style="normal" stroke="#000000" stroke-width="1" stroke-linejoin="bevel" stroke-linecap="square" stroke-opacity="1"/>
  <g font-size="32.9167" font-family="MS Shell Dlg 2" font-weight="400" transform="matrix(11.8008,0,0,11.8008,-28.7006,0)" fill="none" font-style="normal" stroke="#000000" stroke-width="1" stroke-linejoin="bevel" stroke-linecap="square" stroke-opacity="1"/>
  <g font-size="32.9167" font-family="MS Shell Dlg 2" font-weight="400" transform="matrix(11.8008,0,0,11.8008,-28.7006,0)" fill="none" font-style="normal" stroke="#000000" stroke-width="1" stroke-linejoin="bevel" stroke-linecap="square" stroke-opacity="1"/>
  <g font-size="32.9167" font-family="MS Shell Dlg 2" font-weight="400" transform="matrix(11.8008,0,0,11.8008,-28.7006,0)" fill="none" font-style="normal" stroke="#000000" stroke-width="1" stroke-linejoin="bevel" stroke-linecap="square" stroke-opacity="1"/>
  <g font-size="32.9167" font-family="MS Shell Dlg 2" font-weight="400" transform="matrix(11.8008,0,0,11.8008,-28.7006,0)" fill="none" font-style="normal" stroke="#000000" stroke-width="1" stroke-linejoin="bevel" stroke-linecap="square" stroke-opacity="1"/>
  <g font-size="32.9167" font-family="MS Shell Dlg 2" font-weight="400" transform="matrix(11.8008,0,0,11.8008,0,0)" fill="none" font-style="normal" stroke="#000000" stroke-width="1" stroke-linejoin="bevel" stroke-linecap="square" stroke-opacity="1"/>
  <g font-size="32.9167" font-family="MS Shell Dlg 2" font-weight="400" transform="matrix(11.8008,0,0,11.8008,0,0)" fill="none" font-style="normal" stroke="#000000" stroke-width="1" stroke-linejoin="bevel" stroke-linecap="square" stroke-opacity="1"/>
  <g font-size="32.9167" font-family="MS Shell Dlg 2" font-weight="400" transform="matrix(0.999136,0,0,0.999136,0,0)" fill="none" font-style="normal" stroke="#000000" stroke-width="1" stroke-linejoin="bevel" stroke-linecap="square" stroke-opacity="1"/>
  <g font-size="32.9167" font-family="MS Shell Dlg 2" font-weight="400" transform="matrix(11.8008,0,0,11.8008,0,0)" fill="none" font-style="normal" stroke="#000000" stroke-width="1" stroke-linejoin="bevel" stroke-linecap="square" stroke-opacity="1"/>
  <g font-size="32.9167" font-family="MS Shell Dlg 2" font-weight="400" transform="matrix(0.999136,0,0,0.999136,0,0)" fill="none" font-style="normal" stroke="#000000" stroke-width="1" stroke-linejoin="bevel" stroke-linecap="square" stroke-opacity="1"/>
  <g font-size="32.9167" font-family="MS Shell Dlg 2" fill-opacity="1" font-weight="400" transform="matrix(0.999136,0,0,0.999136,23.6016,119.338)" fill="#000000" font-style="normal" stroke="none">
   <path fill-rule="nonzero" vector-effect="none" d="M51.5713,-42.1689 L40.9795,0 L34.6641,0 L26.083,-35.0039 L17.7002,0 L11.5264,0 L0.736328,-42.1689 L6.48535,-42.1689 L14.9814,-7.1084 L23.4209,-42.1689 L29.1133,-42.1689 L37.6377,-6.76855 L46.0771,-42.1689 L51.5713,-42.1689 M73.8203,-7.78809 L73.8203,-16.5674 C72.5553,-16.4541 70.9552,-16.2983 69.02,-16.1001 C67.0848,-15.9019 65.5225,-15.6234 64.333,-15.2646 C62.917,-14.8304 61.7464,-14.1649 60.8213,-13.2681 C59.8962,-12.3713 59.4336,-11.1204 59.4336,-9.51563 C59.4336,-7.70312 59.9434,-6.33431 60.9629,-5.40918 C61.9824,-4.48405 63.474,-4.02148 65.4375,-4.02148 C67.1178,-4.02148 68.6377,-4.38493 69.9971,-5.11182 C71.3564,-5.8387 72.6309,-6.73079 73.8203,-7.78809 M73.8203,-3.37012 C73.3861,-3.04915 72.8055,-2.60075 72.0786,-2.0249 C71.3517,-1.44906 70.6484,-0.991211 69.9688,-0.651367 C69.0247,-0.160482 68.1138,0.217122 67.2358,0.481445 C66.3579,0.745768 65.126,0.87793 63.54,0.87793 C62.2373,0.87793 61.0006,0.632487 59.8301,0.141602 C58.6595,-0.349284 57.6305,-1.03841 56.7432,-1.92578 C55.8936,-2.79427 55.2139,-3.86572 54.7041,-5.14014 C54.1943,-6.41455 53.9395,-7.75977 53.9395,-9.17578 C53.9395,-11.3659 54.402,-13.2303 55.3271,-14.769 C56.2523,-16.3078 57.7155,-17.5303 59.7168,-18.4365 C61.4915,-19.2484 63.5872,-19.8101 66.0039,-20.1216 C68.4206,-20.4331 71.026,-20.6644 73.8203,-20.8154 L73.8203,-21.835 C73.8203,-23.0811 73.6315,-24.0864 73.2539,-24.8511 C72.8763,-25.6157 72.3477,-26.2057 71.668,-26.6211 C70.9883,-27.0553 70.1575,-27.3433 69.1758,-27.4849 C68.194,-27.6265 67.1839,-27.6973 66.1455,-27.6973 C64.9183,-27.6973 63.474,-27.5132 61.8125,-27.145 C60.151,-26.7769 58.4896,-26.2435 56.8281,-25.5449 L56.5166,-25.5449 L56.5166,-30.9541 C57.4984,-31.2373 58.9049,-31.5488 60.7363,-31.8887 C62.5677,-32.2285 64.3802,-32.3984 66.1738,-32.3984 C68.345,-32.3984 70.1764,-32.2285 71.668,-31.8887 C73.1595,-31.5488 74.5,-30.9352 75.6895,-30.0479 C76.8411,-29.1794 77.7002,-28.056 78.2666,-26.6777 C78.833,-25.2995 79.1162,-23.6191 79.1162,-21.6367 L79.1162,0 L73.8203,0 L73.8203,-3.37012 M95.1387,0.764648 C93.0241,0.764648 91.0464,0.481445 89.2056,-0.0849609 C87.3647,-0.651367 85.8402,-1.25553 84.6318,-1.89746 L84.6318,-7.87305 L84.915,-7.87305 C85.3682,-7.51432 85.9015,-7.11784 86.5151,-6.68359 C87.1287,-6.24935 87.9453,-5.79622 88.9648,-5.32422 C89.8711,-4.90885 90.867,-4.54069 91.9526,-4.21973 C93.0382,-3.89876 94.1663,-3.73828 95.3369,-3.73828 C96.1865,-3.73828 97.0928,-3.8374 98.0557,-4.03564 C99.0186,-4.23389 99.736,-4.48405 100.208,-4.78613 C100.869,-5.22038 101.346,-5.68294 101.638,-6.17383 C101.931,-6.66471 102.077,-7.40104 102.077,-8.38281 C102.077,-9.64779 101.733,-10.6012 101.043,-11.2432 C100.354,-11.8851 99.1318,-12.4232 97.376,-12.8574 C96.6963,-13.0273 95.8089,-13.2256 94.7139,-13.4521 C93.6188,-13.6787 92.6087,-13.9242 91.6836,-14.1885 C89.2669,-14.887 87.5111,-15.9679 86.416,-17.4312 C85.321,-18.8944 84.7734,-20.6644 84.7734,-22.7412 C84.7734,-25.5921 85.8496,-27.9144 88.002,-29.708 C90.1543,-31.5016 93.0146,-32.3984 96.583,-32.3984 C98.3389,-32.3984 100.104,-32.1813 101.879,-31.7471 C103.654,-31.3128 105.145,-30.7653 106.354,-30.1045 L106.354,-24.4121 L106.07,-24.4121 C104.711,-25.4883 103.196,-26.3379 101.525,-26.9609 C99.854,-27.584 98.1689,-27.8955 96.4697,-27.8955 C94.7139,-27.8955 93.2318,-27.5273 92.0234,-26.791 C90.8151,-26.0547 90.2109,-24.9408 90.2109,-23.4492 C90.2109,-22.1276 90.5697,-21.1411 91.2871,-20.4897 C92.0046,-19.8384 93.1563,-19.305 94.7422,-18.8896 C95.5352,-18.682 96.4178,-18.479 97.3901,-18.2808 C98.3625,-18.0825 99.3867,-17.8512 100.463,-17.5869 C102.804,-17.0016 104.565,-16.0293 105.745,-14.6699 C106.925,-13.3105 107.515,-11.4603 107.515,-9.11914 C107.515,-7.75977 107.246,-6.47119 106.708,-5.25342 C106.169,-4.03564 105.381,-2.99251 104.343,-2.12402 C103.21,-1.18001 101.931,-0.462565 100.505,0.0283203 C99.0799,0.519206 97.291,0.764648 95.1387,0.764648 M121.014,0.764648 C118.899,0.764648 116.921,0.481445 115.081,-0.0849609 C113.24,-0.651367 111.715,-1.25553 110.507,-1.89746 L110.507,-7.87305 L110.79,-7.87305 C111.243,-7.51432 111.777,-7.11784 112.39,-6.68359 C113.004,-6.24935 113.82,-5.79622 114.84,-5.32422 C115.746,-4.90885 116.742,-4.54069 117.828,-4.21973 C118.913,-3.89876 120.041,-3.73828 121.212,-3.73828 C122.062,-3.73828 122.968,-3.8374 123.931,-4.03564 C124.894,-4.23389 125.611,-4.48405 126.083,-4.78613 C126.744,-5.22038 127.221,-5.68294 127.513,-6.17383 C127.806,-6.66471 127.952,-7.40104 127.952,-8.38281 C127.952,-9.64779 127.608,-10.6012 126.918,-11.2432 C126.229,-11.8851 125.007,-12.4232 123.251,-12.8574 C122.571,-13.0273 121.684,-13.2256 120.589,-13.4521 C119.494,-13.6787 118.484,-13.9242 117.559,-14.1885 C115.142,-14.887 113.386,-15.9679 112.291,-17.4312 C111.196,-18.8944 110.648,-20.6644 110.648,-22.7412 C110.648,-25.5921 111.725,-27.9144 113.877,-29.708 C116.029,-31.5016 118.89,-32.3984 122.458,-32.3984 C124.214,-32.3984 125.979,-32.1813 127.754,-31.7471 C129.529,-31.3128 131.02,-30.7653 132.229,-30.1045 L132.229,-24.4121 L131.945,-24.4121 C130.586,-25.4883 129.071,-26.3379 127.4,-26.9609 C125.729,-27.584 124.044,-27.8955 122.345,-27.8955 C120.589,-27.8955 119.107,-27.5273 117.898,-26.791 C116.69,-26.0547 116.086,-24.9408 116.086,-23.4492 C116.086,-22.1276 116.445,-21.1411 117.162,-20.4897 C117.88,-19.8384 119.031,-19.305 120.617,-18.8896 C121.41,-18.682 122.293,-18.479 123.265,-18.2808 C124.237,-18.0825 125.262,-17.8512 126.338,-17.5869 C128.679,-17.0016 130.44,-16.0293 131.62,-14.6699 C132.8,-13.3105 133.39,-11.4603 133.39,-9.11914 C133.39,-7.75977 133.121,-6.47119 132.583,-5.25342 C132.044,-4.03564 131.256,-2.99251 130.218,-2.12402 C129.085,-1.18001 127.806,-0.462565 126.38,0.0283203 C124.955,0.519206 123.166,0.764648 121.014,0.764648 M152.071,0.736328 C147.03,0.736328 143.117,-0.684408 140.333,-3.52588 C137.548,-6.36735 136.155,-10.403 136.155,-15.6328 C136.155,-20.7871 137.505,-24.8888 140.205,-27.938 C142.905,-30.9871 146.436,-32.5117 150.797,-32.5117 C152.76,-32.5117 154.497,-32.2285 156.008,-31.6621 C157.518,-31.0957 158.84,-30.2083 159.973,-29 C161.105,-27.7917 161.974,-26.3143 162.578,-24.5679 C163.182,-22.8215 163.484,-20.6833 163.484,-18.1533 L163.484,-15.2646 L141.564,-15.2646 C141.564,-11.583 142.49,-8.76986 144.34,-6.8252 C146.19,-4.88053 148.748,-3.9082 152.015,-3.9082 C153.185,-3.9082 154.332,-4.04036 155.456,-4.30469 C156.579,-4.56901 157.594,-4.90885 158.5,-5.32422 C159.463,-5.75846 160.275,-6.17855 160.936,-6.58447 C161.596,-6.9904 162.144,-7.37272 162.578,-7.73145 L162.89,-7.73145 L162.89,-1.92578 C162.267,-1.68034 161.493,-1.37354 160.567,-1.00537 C159.642,-0.637207 158.812,-0.349284 158.075,-0.141602 C157.037,0.141602 156.097,0.358724 155.257,0.509766 C154.417,0.660807 153.355,0.736328 152.071,0.736328 M158.302,-19.3428 C158.264,-20.7777 158.094,-22.0143 157.792,-23.0527 C157.49,-24.0911 157.056,-24.9691 156.489,-25.6865 C155.866,-26.4795 155.069,-27.0837 154.096,-27.499 C153.124,-27.9144 151.92,-28.1221 150.485,-28.1221 C149.069,-28.1221 147.866,-27.9097 146.875,-27.4849 C145.883,-27.0601 144.982,-26.4417 144.17,-25.6299 C143.377,-24.7992 142.773,-23.8787 142.357,-22.8687 C141.942,-21.8586 141.678,-20.6833 141.564,-19.3428 L158.302,-19.3428 M185.617,-25.9131 L185.334,-25.9131 C184.938,-26.0264 184.517,-26.0972 184.074,-26.1255 C183.63,-26.1538 183.097,-26.168 182.474,-26.168 C181.039,-26.168 179.613,-25.8564 178.197,-25.2334 C176.781,-24.6103 175.441,-23.6852 174.176,-22.458 L174.176,0 L168.852,0 L168.852,-31.6338 L174.176,-31.6338 L174.176,-26.9326 C176.12,-28.6507 177.815,-29.8638 179.259,-30.5718 C180.704,-31.2798 182.105,-31.6338 183.465,-31.6338 C184.012,-31.6338 184.423,-31.6196 184.697,-31.5913 C184.971,-31.563 185.277,-31.5205 185.617,-31.4639 L185.617,-25.9131 M198.295,0.764648 C196.18,0.764648 194.203,0.481445 192.362,-0.0849609 C190.521,-0.651367 188.996,-1.25553 187.788,-1.89746 L187.788,-7.87305 L188.071,-7.87305 C188.524,-7.51432 189.058,-7.11784 189.671,-6.68359 C190.285,-6.24935 191.102,-5.79622 192.121,-5.32422 C193.027,-4.90885 194.023,-4.54069 195.109,-4.21973 C196.194,-3.89876 197.323,-3.73828 198.493,-3.73828 C199.343,-3.73828 200.249,-3.8374 201.212,-4.03564 C202.175,-4.23389 202.892,-4.48405 203.364,-4.78613 C204.025,-5.22038 204.502,-5.68294 204.794,-6.17383 C205.087,-6.66471 205.233,-7.40104 205.233,-8.38281 C205.233,-9.64779 204.889,-10.6012 204.2,-11.2432 C203.511,-11.8851 202.288,-12.4232 200.532,-12.8574 C199.853,-13.0273 198.965,-13.2256 197.87,-13.4521 C196.775,-13.6787 195.765,-13.9242 194.84,-14.1885 C192.423,-14.887 190.667,-15.9679 189.572,-17.4312 C188.477,-18.8944 187.93,-20.6644 187.93,-22.7412 C187.93,-25.5921 189.006,-27.9144 191.158,-29.708 C193.311,-31.5016 196.171,-32.3984 199.739,-32.3984 C201.495,-32.3984 203.26,-32.1813 205.035,-31.7471 C206.81,-31.3128 208.301,-30.7653 209.51,-30.1045 L209.51,-24.4121 L209.227,-24.4121 C207.867,-25.4883 206.352,-26.3379 204.681,-26.9609 C203.01,-27.584 201.325,-27.8955 199.626,-27.8955 C197.87,-27.8955 196.388,-27.5273 195.18,-26.791 C193.971,-26.0547 193.367,-24.9408 193.367,-23.4492 C193.367,-22.1276 193.726,-21.1411 194.443,-20.4897 C195.161,-19.8384 196.313,-19.305 197.898,-18.8896 C198.691,-18.682 199.574,-18.479 200.546,-18.2808 C201.519,-18.0825 202.543,-17.8512 203.619,-17.5869 C205.96,-17.0016 207.721,-16.0293 208.901,-14.6699 C210.081,-13.3105 210.671,-11.4603 210.671,-9.11914 C210.671,-7.75977 210.402,-6.47119 209.864,-5.25342 C209.326,-4.03564 208.537,-2.99251 207.499,-2.12402 C206.366,-1.18001 205.087,-0.462565 203.662,0.0283203 C202.236,0.519206 200.447,0.764648 198.295,0.764648 M225.189,0.623047 C222.282,0.623047 220.016,-0.202962 218.393,-1.85498 C216.769,-3.507 215.957,-6.11719 215.957,-9.68555 L215.957,-27.2158 L212.36,-27.2158 L212.36,-31.6338 L215.957,-31.6338 L215.957,-40.7246 L221.281,-40.7246 L221.281,-31.6338 L231.08,-31.6338 L231.08,-27.2158 L221.281,-27.2158 L221.281,-12.1777 C221.281,-10.5729 221.31,-9.33626 221.366,-8.46777 C221.423,-7.59928 221.64,-6.78743 222.018,-6.03223 C222.339,-5.37142 222.858,-4.87581 223.575,-4.54541 C224.293,-4.21501 225.265,-4.0498 226.492,-4.0498 C227.361,-4.0498 228.201,-4.17725 229.013,-4.43213 C229.825,-4.68701 230.41,-4.89941 230.769,-5.06934 L231.08,-5.06934 L231.08,-0.283203 C230.079,-7.45058e-09 229.065,0.221842 228.036,0.382324 C227.007,0.542806 226.058,0.623047 225.189,0.623047 M252.68,-7.78809 L252.68,-16.5674 C251.415,-16.4541 249.815,-16.2983 247.879,-16.1001 C245.944,-15.9019 244.382,-15.6234 243.192,-15.2646 C241.776,-14.8304 240.606,-14.1649 239.681,-13.2681 C238.756,-12.3713 238.293,-11.1204 238.293,-9.51563 C238.293,-7.70312 238.803,-6.33431 239.822,-5.40918 C240.842,-4.48405 242.333,-4.02148 244.297,-4.02148 C245.977,-4.02148 247.497,-4.38493 248.856,-5.11182 C250.216,-5.8387 251.49,-6.73079 252.68,-7.78809 M252.68,-3.37012 C252.245,-3.04915 251.665,-2.60075 250.938,-2.0249 C250.211,-1.44906 249.508,-0.991211 248.828,-0.651367 C247.884,-0.160482 246.973,0.217122 246.095,0.481445 C245.217,0.745768 243.985,0.87793 242.399,0.87793 C241.097,0.87793 239.86,0.632487 238.689,0.141602 C237.519,-0.349284 236.49,-1.03841 235.603,-1.92578 C234.753,-2.79427 234.073,-3.86572 233.563,-5.14014 C233.054,-6.41455 232.799,-7.75977 232.799,-9.17578 C232.799,-11.3659 233.261,-13.2303 234.187,-14.769 C235.112,-16.3078 236.575,-17.5303 238.576,-18.4365 C240.351,-19.2484 242.447,-19.8101 244.863,-20.1216 C247.28,-20.4331 249.885,-20.6644 252.68,-20.8154 L252.68,-21.835 C252.68,-23.0811 252.491,-24.0864 252.113,-24.8511 C251.736,-25.6157 251.207,-26.2057 250.527,-26.6211 C249.848,-27.0553 249.017,-27.3433 248.035,-27.4849 C247.053,-27.6265 246.043,-27.6973 245.005,-27.6973 C243.778,-27.6973 242.333,-27.5132 240.672,-27.145 C239.01,-26.7769 237.349,-26.2435 235.688,-25.5449 L235.376,-25.5449 L235.376,-30.9541 C236.358,-31.2373 237.764,-31.5488 239.596,-31.8887 C241.427,-32.2285 243.24,-32.3984 245.033,-32.3984 C247.204,-32.3984 249.036,-32.2285 250.527,-31.8887 C252.019,-31.5488 253.359,-30.9352 254.549,-30.0479 C255.701,-29.1794 256.56,-28.056 257.126,-26.6777 C257.692,-25.2995 257.976,-23.6191 257.976,-21.6367 L257.976,0 L252.68,0 L252.68,-3.37012 M290.311,0 L284.986,0 L284.986,-18.0117 C284.986,-19.4655 284.916,-20.8201 284.774,-22.0757 C284.632,-23.3312 284.363,-24.3366 283.967,-25.0918 C283.533,-25.8848 282.928,-26.4748 282.154,-26.8618 C281.38,-27.2489 280.323,-27.4424 278.982,-27.4424 C277.661,-27.4424 276.297,-27.0884 274.89,-26.3804 C273.484,-25.6724 272.11,-24.752 270.77,-23.6191 L270.77,0 L265.445,0 L265.445,-31.6338 L270.77,-31.6338 L270.77,-28.1221 C272.355,-29.5381 273.923,-30.6237 275.471,-31.3789 C277.019,-32.1341 278.652,-32.5117 280.37,-32.5117 C283.485,-32.5117 285.921,-31.4875 287.677,-29.439 C289.433,-27.3905 290.311,-24.4215 290.311,-20.5322 L290.311,0 M322.129,0 L316.805,0 L316.805,-3.22852 C315.974,-2.52995 315.257,-1.9541 314.652,-1.50098 C314.048,-1.04785 313.34,-0.632487 312.528,-0.254883 C311.773,0.103841 310.99,0.382324 310.178,0.580566 C309.366,0.778809 308.422,0.87793 307.346,0.87793 C305.628,0.87793 304.037,0.519206 302.574,-0.198242 C301.111,-0.91569 299.869,-1.96354 298.85,-3.3418 C297.811,-4.73893 297.009,-6.46175 296.442,-8.51025 C295.876,-10.5588 295.593,-12.9141 295.593,-15.5762 C295.593,-18.3516 295.951,-20.7541 296.669,-22.7837 C297.386,-24.8133 298.378,-26.5833 299.643,-28.0938 C300.794,-29.472 302.187,-30.5529 303.82,-31.3364 C305.453,-32.12 307.166,-32.5117 308.96,-32.5117 C310.546,-32.5117 311.924,-32.3371 313.095,-31.9878 C314.265,-31.6385 315.502,-31.0957 316.805,-30.3594 L316.805,-44.0664 L322.129,-44.0664 L322.129,0 M316.805,-7.70313 L316.805,-25.9414 C315.483,-26.5833 314.298,-27.027 313.25,-27.2725 C312.203,-27.5179 311.065,-27.6406 309.838,-27.6406 C307.1,-27.6406 304.957,-26.6164 303.409,-24.5679 C301.861,-22.5194 301.087,-19.5599 301.087,-15.6895 C301.087,-11.9701 301.682,-9.12386 302.871,-7.15088 C304.061,-5.1779 305.967,-4.19141 308.592,-4.19141 C309.989,-4.19141 311.396,-4.50765 312.812,-5.14014 C314.228,-5.77262 315.559,-6.62695 316.805,-7.70313 "/>
  </g>
  <g font-size="32.9167" font-family="MS Shell Dlg 2" font-weight="400" transform="matrix(0.999136,0,0,0.999136,0,0)" fill="none" font-style="normal" stroke="#000000" stroke-width="1" stroke-linejoin="bevel" stroke-linecap="square" stroke-opacity="1"/>
  <g font-size="32.9167" font-family="MS Shell Dlg 2" font-weight="400" transform="matrix(0.999136,0,0,0.999136,0,0)" fill="none" font-style="normal" stroke="#000000" stroke-width="1" stroke-linejoin="bevel" stroke-linecap="square" stroke-opacity="1"/>
  <g font-size="32.9167" font-family="MS Shell Dlg 2" font-weight="400" transform="matrix(0.999136,0,0,0.999136,0,0)" fill="none" font-style="normal" stroke="#000000" stroke-width="1" stroke-linejoin="bevel" stroke-linecap="square" stroke-opacity="1"/>
  <g font-size="32.9167" font-family="MS Shell Dlg 2" fill-opacity="1" font-weight="400" transform="matrix(11.8008,0,0,11.8008,0,0)" fill="#ffffff" font-style="normal" stroke="#000000" stroke-width="1" stroke-linejoin="miter" stroke-linecap="square" stroke-miterlimit="2" stroke-opacity="1">
   <rect vector-effect="non-scaling-stroke" x="2" y="18.4891" height="4" width="7"/>
  </g>
  <g font-size="32.9167" font-family="MS Shell Dlg 2" fill-opacity="1" font-weight="400" transform="matrix(0.999136,0,0,0.999136,0,0)" fill="#ffffff" font-style="normal" stroke="#000000" stroke-width="1" stroke-linejoin="miter" stroke-linecap="square" stroke-miterlimit="2" stroke-opacity="1"/>
  <g font-size="32.9167" font-family="MS Shell Dlg 2" fill-opacity="1" font-weight="400" transform="matrix(0.999136,0,0,0.999136,129.809,260.119)" fill="#000000" font-style="normal" stroke="none">
   <path fill-rule="nonzero" vector-effect="none" d="M31.1279,-1.92871 L4.90723,-14.4531 L4.90723,-17.3828 L31.1279,-29.9072 L31.1279,-25.5615 L10.791,-15.918 L31.1279,-6.27441 L31.1279,-1.92871 M77.2686,-18.1885 C77.2686,-11.6618 76.3205,-6.87256 74.4243,-3.8208 C72.5282,-0.769043 69.6025,0.756836 65.6475,0.756836 C61.6436,0.756836 58.7057,-0.797526 56.834,-3.90625 C54.9622,-7.01497 54.0264,-11.7594 54.0264,-18.1396 C54.0264,-24.6989 54.9744,-29.4963 56.8706,-32.5317 C58.7668,-35.5672 61.6924,-37.085 65.6475,-37.085 C69.6514,-37.085 72.5892,-35.5143 74.4609,-32.373 C76.3327,-29.2318 77.2686,-24.5036 77.2686,-18.1885 M71.0186,-7.10449 C71.4906,-8.30892 71.8242,-9.83073 72.0195,-11.6699 C72.2148,-13.5091 72.3125,-15.682 72.3125,-18.1885 C72.3125,-20.6787 72.2148,-22.8434 72.0195,-24.6826 C71.8242,-26.5218 71.4824,-28.0518 70.9941,-29.2725 C70.5059,-30.5094 69.8345,-31.4494 68.98,-32.0923 C68.1255,-32.7352 67.0146,-33.0566 65.6475,-33.0566 C64.2965,-33.0566 63.1857,-32.7352 62.3149,-32.0923 C61.4442,-31.4494 60.7565,-30.4932 60.252,-29.2236 C59.7637,-27.9867 59.43,-26.4242 59.251,-24.5361 C59.0719,-22.6481 58.9824,-20.5159 58.9824,-18.1396 C58.9824,-15.6006 59.0597,-13.4766 59.2144,-11.7676 C59.369,-10.0586 59.7067,-8.52865 60.2275,-7.17773 C60.6995,-5.92448 61.3709,-4.96012 62.2417,-4.28467 C63.1125,-3.60921 64.2477,-3.27148 65.6475,-3.27148 C66.9984,-3.27148 68.1092,-3.59294 68.98,-4.23584 C69.8507,-4.87874 70.5303,-5.83496 71.0186,-7.10449 M91.4883,-6.95801 L84.6523,9.0332 L81.0879,9.0332 L85.3848,-6.95801 L91.4883,-6.95801 M117.648,0 L99.9238,0 L99.9238,-3.71094 L106.516,-3.71094 L106.516,-28.0762 L99.9238,-28.0762 L99.9238,-31.3965 C102.414,-31.3965 104.249,-31.7505 105.429,-32.4585 C106.609,-33.1665 107.272,-34.5052 107.419,-36.4746 L111.203,-36.4746 L111.203,-3.71094 L117.648,-3.71094 L117.648,0 M146.956,-18.1885 C146.956,-11.6618 146.008,-6.87256 144.112,-3.8208 C142.216,-0.769043 139.29,0.756836 135.335,0.756836 C131.331,0.756836 128.393,-0.797526 126.521,-3.90625 C124.65,-7.01497 123.714,-11.7594 123.714,-18.1396 C123.714,-24.6989 124.662,-29.4963 126.558,-32.5317 C128.454,-35.5672 131.38,-37.085 135.335,-37.085 C139.339,-37.085 142.277,-35.5143 144.148,-32.373 C146.02,-29.2318 146.956,-24.5036 146.956,-18.1885 M140.706,-7.10449 C141.178,-8.30892 141.512,-9.83073 141.707,-11.6699 C141.902,-13.5091 142,-15.682 142,-18.1885 C142,-20.6787 141.902,-22.8434 141.707,-24.6826 C141.512,-26.5218 141.17,-28.0518 140.682,-29.2725 C140.193,-30.5094 139.522,-31.4494 138.667,-32.0923 C137.813,-32.7352 136.702,-33.0566 135.335,-33.0566 C133.984,-33.0566 132.873,-32.7352 132.002,-32.0923 C131.132,-31.4494 130.444,-30.4932 129.939,-29.2236 C129.451,-27.9867 129.118,-26.4242 128.938,-24.5361 C128.759,-22.6481 128.67,-20.5159 128.67,-18.1396 C128.67,-15.6006 128.747,-13.4766 128.902,-11.7676 C129.056,-10.0586 129.394,-8.52865 129.915,-7.17773 C130.387,-5.92448 131.058,-4.96012 131.929,-4.28467 C132.8,-3.60921 133.935,-3.27148 135.335,-3.27148 C136.686,-3.27148 137.797,-3.59294 138.667,-4.23584 C139.538,-4.87874 140.218,-5.83496 140.706,-7.10449 M198.871,0 L198.871,-15.7715 C198.871,-17.0247 198.822,-18.1844 198.725,-19.2505 C198.627,-20.3166 198.423,-21.1507 198.114,-21.7529 C197.789,-22.404 197.325,-22.8841 196.723,-23.1934 C196.12,-23.5026 195.307,-23.6572 194.281,-23.6572 C193.337,-23.6572 192.324,-23.3683 191.242,-22.7905 C190.159,-22.2127 189.04,-21.3786 187.885,-20.2881 C187.901,-20.0114 187.921,-19.6818 187.946,-19.2993 C187.97,-18.9168 187.982,-18.4652 187.982,-17.9443 L187.982,0 L183.393,0 L183.393,-15.7715 C183.393,-17.0247 183.344,-18.1844 183.246,-19.2505 C183.148,-20.3166 182.945,-21.1507 182.636,-21.7529 C182.31,-22.404 181.846,-22.8841 181.244,-23.1934 C180.642,-23.5026 179.828,-23.6572 178.803,-23.6572 C177.81,-23.6572 176.768,-23.348 175.678,-22.7295 C174.587,-22.111 173.529,-21.3216 172.504,-20.3613 L172.504,0 L167.914,0 L167.914,-27.2705 L172.504,-27.2705 L172.504,-24.2432 C173.708,-25.4476 174.901,-26.3794 176.081,-27.0386 C177.261,-27.6978 178.559,-28.0273 179.975,-28.0273 C181.586,-28.0273 183.014,-27.6611 184.259,-26.9287 C185.504,-26.1963 186.452,-24.9919 187.104,-23.3154 C188.487,-24.8617 189.838,-26.0335 191.156,-26.8311 C192.475,-27.6286 193.907,-28.0273 195.453,-28.0273 C196.625,-28.0273 197.691,-27.8442 198.651,-27.478 C199.612,-27.1118 200.45,-26.5218 201.166,-25.708 C201.898,-24.8779 202.464,-23.8444 202.863,-22.6074 C203.262,-21.3704 203.461,-19.8161 203.461,-17.9443 L203.461,0 L198.871,0"/>
  </g>
  <g font-size="32.9167" font-family="MS Shell Dlg 2" fill-opacity="1" font-weight="400" transform="matrix(0.999136,0,0,0.999136,0,0)" fill="#ffffff" font-style="normal" stroke="#000000" stroke-width="1" stroke-linejoin="miter" stroke-linecap="square" stroke-miterlimit="2" stroke-opacity="1"/>
  <g font-size="32.9167" font-family="MS Shell Dlg 2" fill-opacity="1" font-weight="400" transform="matrix(11.8008,0,0,11.8008,0,0)" fill="#f7fbff" font-style="normal" stroke="#000000" stroke-width="1" stroke-linejoin="miter" stroke-linecap="square" stroke-miterlimit="2" stroke-opacity="1">
   <rect vector-effect="non-scaling-stroke" x="2" y="24.9891" height="4" width="7"/>
  </g>
  <g font-size="32.9167" font-family="MS Shell Dlg 2" fill-opacity="1" font-weight="400" transform="matrix(0.999136,0,0,0.999136,0,0)" fill="#f7fbff" font-style="normal" stroke="#000000" stroke-width="1" stroke-linejoin="miter" stroke-linecap="square" stroke-miterlimit="2" stroke-opacity="1"/>
  <g font-size="32.9167" font-family="MS Shell Dlg 2" fill-opacity="1" font-weight="400" transform="matrix(0.999136,0,0,0.999136,129.809,337.052)" fill="#000000" font-style="normal" stroke="none">
   <path fill-rule="nonzero" vector-effect="none" d="M25.2686,-18.1885 C25.2686,-11.6618 24.3205,-6.87256 22.4243,-3.8208 C20.5282,-0.769043 17.6025,0.756836 13.6475,0.756836 C9.64355,0.756836 6.70573,-0.797526 4.83398,-3.90625 C2.96224,-7.01497 2.02637,-11.7594 2.02637,-18.1396 C2.02637,-24.6989 2.97445,-29.4963 4.87061,-32.5317 C6.76676,-35.5672 9.69238,-37.085 13.6475,-37.085 C17.6514,-37.085 20.5892,-35.5143 22.4609,-32.373 C24.3327,-29.2318 25.2686,-24.5036 25.2686,-18.1885 M19.0186,-7.10449 C19.4906,-8.30892 19.8242,-9.83073 20.0195,-11.6699 C20.2148,-13.5091 20.3125,-15.682 20.3125,-18.1885 C20.3125,-20.6787 20.2148,-22.8434 20.0195,-24.6826 C19.8242,-26.5218 19.4824,-28.0518 18.9941,-29.2725 C18.5059,-30.5094 17.8345,-31.4494 16.98,-32.0923 C16.1255,-32.7352 15.0146,-33.0566 13.6475,-33.0566 C12.2965,-33.0566 11.1857,-32.7352 10.3149,-32.0923 C9.44417,-31.4494 8.75651,-30.4932 8.25195,-29.2236 C7.76367,-27.9867 7.43001,-26.4242 7.25098,-24.5361 C7.07194,-22.6481 6.98242,-20.5159 6.98242,-18.1396 C6.98242,-15.6006 7.05973,-13.4766 7.21436,-11.7676 C7.36898,-10.0586 7.70671,-8.52865 8.22754,-7.17773 C8.69954,-5.92448 9.37093,-4.96012 10.2417,-4.28467 C11.1125,-3.60921 12.2477,-3.27148 13.6475,-3.27148 C14.9984,-3.27148 16.1092,-3.59294 16.98,-4.23584 C17.8507,-4.87874 18.5303,-5.83496 19.0186,-7.10449 M39.4883,-6.95801 L32.6523,9.0332 L29.0879,9.0332 L33.3848,-6.95801 L39.4883,-6.95801 M65.6484,0 L47.9238,0 L47.9238,-3.71094 L54.5156,-3.71094 L54.5156,-28.0762 L47.9238,-28.0762 L47.9238,-31.3965 C50.4141,-31.3965 52.2492,-31.7505 53.4292,-32.4585 C54.6092,-33.1665 55.2725,-34.5052 55.4189,-36.4746 L59.2031,-36.4746 L59.2031,-3.71094 L65.6484,-3.71094 L65.6484,0 M94.9561,-18.1885 C94.9561,-11.6618 94.008,-6.87256 92.1118,-3.8208 C90.2157,-0.769043 87.29,0.756836 83.335,0.756836 C79.3311,0.756836 76.3932,-0.797526 74.5215,-3.90625 C72.6497,-7.01497 71.7139,-11.7594 71.7139,-18.1396 C71.7139,-24.6989 72.6619,-29.4963 74.5581,-32.5317 C76.4543,-35.5672 79.3799,-37.085 83.335,-37.085 C87.3389,-37.085 90.2767,-35.5143 92.1484,-32.373 C94.0202,-29.2318 94.9561,-24.5036 94.9561,-18.1885 M88.7061,-7.10449 C89.1781,-8.30892 89.5117,-9.83073 89.707,-11.6699 C89.9023,-13.5091 90,-15.682 90,-18.1885 C90,-20.6787 89.9023,-22.8434 89.707,-24.6826 C89.5117,-26.5218 89.1699,-28.0518 88.6816,-29.2725 C88.1934,-30.5094 87.522,-31.4494 86.6675,-32.0923 C85.813,-32.7352 84.7021,-33.0566 83.335,-33.0566 C81.984,-33.0566 80.8732,-32.7352 80.0024,-32.0923 C79.1317,-31.4494 78.444,-30.4932 77.9395,-29.2236 C77.4512,-27.9867 77.1175,-26.4242 76.9385,-24.5361 C76.7594,-22.6481 76.6699,-20.5159 76.6699,-18.1396 C76.6699,-15.6006 76.7472,-13.4766 76.9019,-11.7676 C77.0565,-10.0586 77.3942,-8.52865 77.915,-7.17773 C78.387,-5.92448 79.0584,-4.96012 79.9292,-4.28467 C80.8,-3.60921 81.9352,-3.27148 83.335,-3.27148 C84.6859,-3.27148 85.7967,-3.59294 86.6675,-4.23584 C87.5382,-4.87874 88.2178,-5.83496 88.7061,-7.10449 M146.871,0 L146.871,-15.7715 C146.871,-17.0247 146.822,-18.1844 146.725,-19.2505 C146.627,-20.3166 146.423,-21.1507 146.114,-21.7529 C145.789,-22.404 145.325,-22.8841 144.723,-23.1934 C144.12,-23.5026 143.307,-23.6572 142.281,-23.6572 C141.337,-23.6572 140.324,-23.3683 139.242,-22.7905 C138.159,-22.2127 137.04,-21.3786 135.885,-20.2881 C135.901,-20.0114 135.921,-19.6818 135.946,-19.2993 C135.97,-18.9168 135.982,-18.4652 135.982,-17.9443 L135.982,0 L131.393,0 L131.393,-15.7715 C131.393,-17.0247 131.344,-18.1844 131.246,-19.2505 C131.148,-20.3166 130.945,-21.1507 130.636,-21.7529 C130.31,-22.404 129.846,-22.8841 129.244,-23.1934 C128.642,-23.5026 127.828,-23.6572 126.803,-23.6572 C125.81,-23.6572 124.768,-23.348 123.678,-22.7295 C122.587,-22.111 121.529,-21.3216 120.504,-20.3613 L120.504,0 L115.914,0 L115.914,-27.2705 L120.504,-27.2705 L120.504,-24.2432 C121.708,-25.4476 122.901,-26.3794 124.081,-27.0386 C125.261,-27.6978 126.559,-28.0273 127.975,-28.0273 C129.586,-28.0273 131.014,-27.6611 132.259,-26.9287 C133.504,-26.1963 134.452,-24.9919 135.104,-23.3154 C136.487,-24.8617 137.838,-26.0335 139.156,-26.8311 C140.475,-27.6286 141.907,-28.0273 143.453,-28.0273 C144.625,-28.0273 145.691,-27.8442 146.651,-27.478 C147.612,-27.1118 148.45,-26.5218 149.166,-25.708 C149.898,-24.8779 150.464,-23.8444 150.863,-22.6074 C151.262,-21.3704 151.461,-19.8161 151.461,-17.9443 L151.461,0 L146.871,0"/>
  </g>
  <g font-size="32.9167" font-family="MS Shell Dlg 2" fill-opacity="1" font-weight="400" transform="matrix(0.999136,0,0,0.999136,0,0)" fill="#f7fbff" font-style="normal" stroke="#000000" stroke-width="1" stroke-linejoin="miter" stroke-linecap="square" stroke-miterlimit="2" stroke-opacity="1"/>
  <g font-size="32.9167" font-family="MS Shell Dlg 2" fill-opacity="1" font-weight="400" transform="matrix(11.8008,0,0,11.8008,0,0)" fill="#c8dcf0" font-style="normal" stroke="#000000" stroke-width="1" stroke-linejoin="miter" stroke-linecap="square" stroke-miterlimit="2" stroke-opacity="1">
   <rect vector-effect="non-scaling-stroke" x="2" y="31.4891" height="4" width="7"/>
  </g>
  <g font-size="32.9167" font-family="MS Shell Dlg 2" fill-opacity="1" font-weight="400" transform="matrix(0.999136,0,0,0.999136,0,0)" fill="#c8dcf0" font-style="normal" stroke="#000000" stroke-width="1" stroke-linejoin="miter" stroke-linecap="square" stroke-miterlimit="2" stroke-opacity="1"/>
  <g font-size="32.9167" font-family="MS Shell Dlg 2" fill-opacity="1" font-weight="400" transform="matrix(0.999136,0,0,0.999136,129.809,412.987)" fill="#000000" font-style="normal" stroke="none">
   <path fill-rule="nonzero" vector-effect="none" d="M25.2686,-18.1885 C25.2686,-11.6618 24.3205,-6.87256 22.4243,-3.8208 C20.5282,-0.769043 17.6025,0.756836 13.6475,0.756836 C9.64355,0.756836 6.70573,-0.797526 4.83398,-3.90625 C2.96224,-7.01497 2.02637,-11.7594 2.02637,-18.1396 C2.02637,-24.6989 2.97445,-29.4963 4.87061,-32.5317 C6.76676,-35.5672 9.69238,-37.085 13.6475,-37.085 C17.6514,-37.085 20.5892,-35.5143 22.4609,-32.373 C24.3327,-29.2318 25.2686,-24.5036 25.2686,-18.1885 M19.0186,-7.10449 C19.4906,-8.30892 19.8242,-9.83073 20.0195,-11.6699 C20.2148,-13.5091 20.3125,-15.682 20.3125,-18.1885 C20.3125,-20.6787 20.2148,-22.8434 20.0195,-24.6826 C19.8242,-26.5218 19.4824,-28.0518 18.9941,-29.2725 C18.5059,-30.5094 17.8345,-31.4494 16.98,-32.0923 C16.1255,-32.7352 15.0146,-33.0566 13.6475,-33.0566 C12.2965,-33.0566 11.1857,-32.7352 10.3149,-32.0923 C9.44417,-31.4494 8.75651,-30.4932 8.25195,-29.2236 C7.76367,-27.9867 7.43001,-26.4242 7.25098,-24.5361 C7.07194,-22.6481 6.98242,-20.5159 6.98242,-18.1396 C6.98242,-15.6006 7.05973,-13.4766 7.21436,-11.7676 C7.36898,-10.0586 7.70671,-8.52865 8.22754,-7.17773 C8.69954,-5.92448 9.37093,-4.96012 10.2417,-4.28467 C11.1125,-3.60921 12.2477,-3.27148 13.6475,-3.27148 C14.9984,-3.27148 16.1092,-3.59294 16.98,-4.23584 C17.8507,-4.87874 18.5303,-5.83496 19.0186,-7.10449 M39.4883,-6.95801 L32.6523,9.0332 L29.0879,9.0332 L33.3848,-6.95801 L39.4883,-6.95801 M67.0889,-11.5723 C67.0889,-9.81445 66.8081,-8.18685 66.2466,-6.68945 C65.6851,-5.19206 64.8997,-3.89811 63.8906,-2.80762 C62.8652,-1.70085 61.5916,-0.830078 60.0698,-0.195313 C58.548,0.439453 56.8431,0.756836 54.9551,0.756836 C53.2135,0.756836 51.5005,0.565592 49.8159,0.183105 C48.1313,-0.199382 46.6706,-0.69987 45.4336,-1.31836 L45.4336,-6.46973 L45.7754,-6.46973 C46.1497,-6.19303 46.6868,-5.87972 47.3867,-5.52979 C48.0866,-5.17985 48.8597,-4.85026 49.7061,-4.54102 C50.6663,-4.19922 51.5452,-3.93473 52.3428,-3.74756 C53.1403,-3.56038 54.0355,-3.4668 55.0283,-3.4668 C56.0049,-3.4668 56.957,-3.64176 57.8848,-3.9917 C58.8125,-4.34163 59.61,-4.90723 60.2773,-5.68848 C60.8796,-6.40462 61.3394,-7.24284 61.6567,-8.20313 C61.9741,-9.16341 62.1328,-10.2946 62.1328,-11.5967 C62.1328,-12.8825 61.9578,-13.9404 61.6079,-14.7705 C61.258,-15.6006 60.7493,-16.2842 60.082,-16.8213 C59.3822,-17.4398 58.5236,-17.8752 57.5063,-18.1274 C56.4891,-18.3797 55.3538,-18.5059 54.1006,-18.5059 C52.7822,-18.5059 51.4557,-18.4041 50.1211,-18.2007 C48.7865,-17.9972 47.7204,-17.806 46.9229,-17.627 L46.9229,-36.3525 L66.8691,-36.3525 L66.8691,-32.0801 L51.6348,-32.0801 L51.6348,-22.4121 C52.2207,-22.4772 52.7985,-22.526 53.3682,-22.5586 C53.9378,-22.5911 54.4587,-22.6074 54.9307,-22.6074 C56.7861,-22.6074 58.3568,-22.4528 59.6426,-22.1436 C60.9284,-21.8343 62.1654,-21.2321 63.3535,-20.3369 C64.5579,-19.4255 65.4816,-18.2861 66.1245,-16.9189 C66.7674,-15.5518 67.0889,-13.7695 67.0889,-11.5723 M119.59,0 L119.59,-15.7715 C119.59,-17.0247 119.541,-18.1844 119.443,-19.2505 C119.346,-20.3166 119.142,-21.1507 118.833,-21.7529 C118.507,-22.404 118.044,-22.8841 117.441,-23.1934 C116.839,-23.5026 116.025,-23.6572 115,-23.6572 C114.056,-23.6572 113.043,-23.3683 111.96,-22.7905 C110.878,-22.2127 109.759,-21.3786 108.604,-20.2881 C108.62,-20.0114 108.64,-19.6818 108.665,-19.2993 C108.689,-18.9168 108.701,-18.4652 108.701,-17.9443 L108.701,0 L104.111,0 L104.111,-15.7715 C104.111,-17.0247 104.063,-18.1844 103.965,-19.2505 C103.867,-20.3166 103.664,-21.1507 103.354,-21.7529 C103.029,-22.404 102.565,-22.8841 101.963,-23.1934 C101.361,-23.5026 100.547,-23.6572 99.5215,-23.6572 C98.5286,-23.6572 97.487,-23.348 96.3965,-22.7295 C95.306,-22.111 94.248,-21.3216 93.2227,-20.3613 L93.2227,0 L88.6328,0 L88.6328,-27.2705 L93.2227,-27.2705 L93.2227,-24.2432 C94.4271,-25.4476 95.6193,-26.3794 96.7993,-27.0386 C97.9793,-27.6978 99.2773,-28.0273 100.693,-28.0273 C102.305,-28.0273 103.733,-27.6611 104.978,-26.9287 C106.223,-26.1963 107.171,-24.9919 107.822,-23.3154 C109.206,-24.8617 110.557,-26.0335 111.875,-26.8311 C113.193,-27.6286 114.626,-28.0273 116.172,-28.0273 C117.344,-28.0273 118.41,-27.8442 119.37,-27.478 C120.33,-27.1118 121.169,-26.5218 121.885,-25.708 C122.617,-24.8779 123.183,-23.8444 123.582,-22.6074 C123.98,-21.3704 124.18,-19.8161 124.18,-17.9443 L124.18,0 L119.59,0"/>
  </g>
  <g font-size="32.9167" font-family="MS Shell Dlg 2" fill-opacity="1" font-weight="400" transform="matrix(0.999136,0,0,0.999136,0,0)" fill="#c8dcf0" font-style="normal" stroke="#000000" stroke-width="1" stroke-linejoin="miter" stroke-linecap="square" stroke-miterlimit="2" stroke-opacity="1"/>
  <g font-size="32.9167" font-family="MS Shell Dlg 2" fill-opacity="1" font-weight="400" transform="matrix(11.8008,0,0,11.8008,0,0)" fill="#73b2d8" font-style="normal" stroke="#000000" stroke-width="1" stroke-linejoin="miter" stroke-linecap="square" stroke-miterlimit="2" stroke-opacity="1">
   <rect vector-effect="non-scaling-stroke" x="2" y="37.9891" height="4" width="7"/>
  </g>
  <g font-size="32.9167" font-family="MS Shell Dlg 2" fill-opacity="1" font-weight="400" transform="matrix(0.999136,0,0,0.999136,0,0)" fill="#73b2d8" font-style="normal" stroke="#000000" stroke-width="1" stroke-linejoin="miter" stroke-linecap="square" stroke-miterlimit="2" stroke-opacity="1"/>
  <g font-size="32.9167" font-family="MS Shell Dlg 2" fill-opacity="1" font-weight="400" transform="matrix(0.999136,0,0,0.999136,129.809,489.92)" fill="#000000" font-style="normal" stroke="none">
   <path fill-rule="nonzero" vector-effect="none" d="M23.2422,0 L5.51758,0 L5.51758,-3.71094 L12.1094,-3.71094 L12.1094,-28.0762 L5.51758,-28.0762 L5.51758,-31.3965 C8.00781,-31.3965 9.84294,-31.7505 11.0229,-32.4585 C12.203,-33.1665 12.8662,-34.5052 13.0127,-36.4746 L16.7969,-36.4746 L16.7969,-3.71094 L23.2422,-3.71094 L23.2422,0 M39.4883,-6.95801 L32.6523,9.0332 L29.0879,9.0332 L33.3848,-6.95801 L39.4883,-6.95801 M67.6748,-18.1885 C67.6748,-11.6618 66.7267,-6.87256 64.8306,-3.8208 C62.9344,-0.769043 60.0088,0.756836 56.0537,0.756836 C52.0498,0.756836 49.112,-0.797526 47.2402,-3.90625 C45.3685,-7.01497 44.4326,-11.7594 44.4326,-18.1396 C44.4326,-24.6989 45.3807,-29.4963 47.2769,-32.5317 C49.173,-35.5672 52.0986,-37.085 56.0537,-37.085 C60.0576,-37.085 62.9954,-35.5143 64.8672,-32.373 C66.7389,-29.2318 67.6748,-24.5036 67.6748,-18.1885 M61.4248,-7.10449 C61.8968,-8.30892 62.2305,-9.83073 62.4258,-11.6699 C62.6211,-13.5091 62.7187,-15.682 62.7188,-18.1885 C62.7187,-20.6787 62.6211,-22.8434 62.4258,-24.6826 C62.2305,-26.5218 61.8887,-28.0518 61.4004,-29.2725 C60.9121,-30.5094 60.2407,-31.4494 59.3862,-32.0923 C58.5317,-32.7352 57.4209,-33.0566 56.0537,-33.0566 C54.7028,-33.0566 53.592,-32.7352 52.7212,-32.0923 C51.8504,-31.4494 51.1628,-30.4932 50.6582,-29.2236 C50.1699,-27.9867 49.8363,-26.4242 49.6572,-24.5361 C49.4782,-22.6481 49.3887,-20.5159 49.3887,-18.1396 C49.3887,-15.6006 49.466,-13.4766 49.6206,-11.7676 C49.7752,-10.0586 50.113,-8.52865 50.6338,-7.17773 C51.1058,-5.92448 51.7772,-4.96012 52.6479,-4.28467 C53.5187,-3.60921 54.654,-3.27148 56.0537,-3.27148 C57.4046,-3.27148 58.5155,-3.59294 59.3862,-4.23584 C60.257,-4.87874 60.9365,-5.83496 61.4248,-7.10449 M119.59,0 L119.59,-15.7715 C119.59,-17.0247 119.541,-18.1844 119.443,-19.2505 C119.346,-20.3166 119.142,-21.1507 118.833,-21.7529 C118.507,-22.404 118.044,-22.8841 117.441,-23.1934 C116.839,-23.5026 116.025,-23.6572 115,-23.6572 C114.056,-23.6572 113.043,-23.3683 111.96,-22.7905 C110.878,-22.2127 109.759,-21.3786 108.604,-20.2881 C108.62,-20.0114 108.64,-19.6818 108.665,-19.2993 C108.689,-18.9168 108.701,-18.4652 108.701,-17.9443 L108.701,0 L104.111,0 L104.111,-15.7715 C104.111,-17.0247 104.063,-18.1844 103.965,-19.2505 C103.867,-20.3166 103.664,-21.1507 103.354,-21.7529 C103.029,-22.404 102.565,-22.8841 101.963,-23.1934 C101.361,-23.5026 100.547,-23.6572 99.5215,-23.6572 C98.5286,-23.6572 97.487,-23.348 96.3965,-22.7295 C95.306,-22.111 94.248,-21.3216 93.2227,-20.3613 L93.2227,0 L88.6328,0 L88.6328,-27.2705 L93.2227,-27.2705 L93.2227,-24.2432 C94.4271,-25.4476 95.6193,-26.3794 96.7993,-27.0386 C97.9793,-27.6978 99.2773,-28.0273 100.693,-28.0273 C102.305,-28.0273 103.733,-27.6611 104.978,-26.9287 C106.223,-26.1963 107.171,-24.9919 107.822,-23.3154 C109.206,-24.8617 110.557,-26.0335 111.875,-26.8311 C113.193,-27.6286 114.626,-28.0273 116.172,-28.0273 C117.344,-28.0273 118.41,-27.8442 119.37,-27.478 C120.33,-27.1118 121.169,-26.5218 121.885,-25.708 C122.617,-24.8779 123.183,-23.8444 123.582,-22.6074 C123.98,-21.3704 124.18,-19.8161 124.18,-17.9443 L124.18,0 L119.59,0"/>
  </g>
  <g font-size="32.9167" font-family="MS Shell Dlg 2" fill-opacity="1" font-weight="400" transform="matrix(0.999136,0,0,0.999136,0,0)" fill="#73b2d8" font-style="normal" stroke="#000000" stroke-width="1" stroke-linejoin="miter" stroke-linecap="square" stroke-miterlimit="2" stroke-opacity="1"/>
  <g font-size="32.9167" font-family="MS Shell Dlg 2" fill-opacity="1" font-weight="400" transform="matrix(11.8008,0,0,11.8008,0,0)" fill="#2979b9" font-style="normal" stroke="#000000" stroke-width="1" stroke-linejoin="miter" stroke-linecap="square" stroke-miterlimit="2" stroke-opacity="1">
   <rect vector-effect="non-scaling-stroke" x="2" y="44.4891" height="4" width="7"/>
  </g>
  <g font-size="32.9167" font-family="MS Shell Dlg 2" fill-opacity="1" font-weight="400" transform="matrix(0.999136,0,0,0.999136,0,0)" fill="#2979b9" font-style="normal" stroke="#000000" stroke-width="1" stroke-linejoin="miter" stroke-linecap="square" stroke-miterlimit="2" stroke-opacity="1"/>
  <g font-size="32.9167" font-family="MS Shell Dlg 2" fill-opacity="1" font-weight="400" transform="matrix(0.999136,0,0,0.999136,129.809,566.854)" fill="#000000" font-style="normal" stroke="none">
   <path fill-rule="nonzero" vector-effect="none" d="M23.2422,0 L5.51758,0 L5.51758,-3.71094 L12.1094,-3.71094 L12.1094,-28.0762 L5.51758,-28.0762 L5.51758,-31.3965 C8.00781,-31.3965 9.84294,-31.7505 11.0229,-32.4585 C12.203,-33.1665 12.8662,-34.5052 13.0127,-36.4746 L16.7969,-36.4746 L16.7969,-3.71094 L23.2422,-3.71094 L23.2422,0 M39.4883,-6.95801 L32.6523,9.0332 L29.0879,9.0332 L33.3848,-6.95801 L39.4883,-6.95801 M67.0889,-11.5723 C67.0889,-9.81445 66.8081,-8.18685 66.2466,-6.68945 C65.6851,-5.19206 64.8997,-3.89811 63.8906,-2.80762 C62.8652,-1.70085 61.5916,-0.830078 60.0698,-0.195313 C58.548,0.439453 56.8431,0.756836 54.9551,0.756836 C53.2135,0.756836 51.5005,0.565592 49.8159,0.183105 C48.1313,-0.199382 46.6706,-0.69987 45.4336,-1.31836 L45.4336,-6.46973 L45.7754,-6.46973 C46.1497,-6.19303 46.6868,-5.87972 47.3867,-5.52979 C48.0866,-5.17985 48.8597,-4.85026 49.7061,-4.54102 C50.6663,-4.19922 51.5452,-3.93473 52.3428,-3.74756 C53.1403,-3.56038 54.0355,-3.4668 55.0283,-3.4668 C56.0049,-3.4668 56.957,-3.64176 57.8848,-3.9917 C58.8125,-4.34163 59.61,-4.90723 60.2773,-5.68848 C60.8796,-6.40462 61.3394,-7.24284 61.6567,-8.20313 C61.9741,-9.16341 62.1328,-10.2946 62.1328,-11.5967 C62.1328,-12.8825 61.9578,-13.9404 61.6079,-14.7705 C61.258,-15.6006 60.7493,-16.2842 60.082,-16.8213 C59.3822,-17.4398 58.5236,-17.8752 57.5063,-18.1274 C56.4891,-18.3797 55.3538,-18.5059 54.1006,-18.5059 C52.7822,-18.5059 51.4557,-18.4041 50.1211,-18.2007 C48.7865,-17.9972 47.7204,-17.806 46.9229,-17.627 L46.9229,-36.3525 L66.8691,-36.3525 L66.8691,-32.0801 L51.6348,-32.0801 L51.6348,-22.4121 C52.2207,-22.4772 52.7985,-22.526 53.3682,-22.5586 C53.9378,-22.5911 54.4587,-22.6074 54.9307,-22.6074 C56.7861,-22.6074 58.3568,-22.4528 59.6426,-22.1436 C60.9284,-21.8343 62.1654,-21.2321 63.3535,-20.3369 C64.5579,-19.4255 65.4816,-18.2861 66.1245,-16.9189 C66.7674,-15.5518 67.0889,-13.7695 67.0889,-11.5723 M119.59,0 L119.59,-15.7715 C119.59,-17.0247 119.541,-18.1844 119.443,-19.2505 C119.346,-20.3166 119.142,-21.1507 118.833,-21.7529 C118.507,-22.404 118.044,-22.8841 117.441,-23.1934 C116.839,-23.5026 116.025,-23.6572 115,-23.6572 C114.056,-23.6572 113.043,-23.3683 111.96,-22.7905 C110.878,-22.2127 109.759,-21.3786 108.604,-20.2881 C108.62,-20.0114 108.64,-19.6818 108.665,-19.2993 C108.689,-18.9168 108.701,-18.4652 108.701,-17.9443 L108.701,0 L104.111,0 L104.111,-15.7715 C104.111,-17.0247 104.063,-18.1844 103.965,-19.2505 C103.867,-20.3166 103.664,-21.1507 103.354,-21.7529 C103.029,-22.404 102.565,-22.8841 101.963,-23.1934 C101.361,-23.5026 100.547,-23.6572 99.5215,-23.6572 C98.5286,-23.6572 97.487,-23.348 96.3965,-22.7295 C95.306,-22.111 94.248,-21.3216 93.2227,-20.3613 L93.2227,0 L88.6328,0 L88.6328,-27.2705 L93.2227,-27.2705 L93.2227,-24.2432 C94.4271,-25.4476 95.6193,-26.3794 96.7993,-27.0386 C97.9793,-27.6978 99.2773,-28.0273 100.693,-28.0273 C102.305,-28.0273 103.733,-27.6611 104.978,-26.9287 C106.223,-26.1963 107.171,-24.9919 107.822,-23.3154 C109.206,-24.8617 110.557,-26.0335 111.875,-26.8311 C113.193,-27.6286 114.626,-28.0273 116.172,-28.0273 C117.344,-28.0273 118.41,-27.8442 119.37,-27.478 C120.33,-27.1118 121.169,-26.5218 121.885,-25.708 C122.617,-24.8779 123.183,-23.8444 123.582,-22.6074 C123.98,-21.3704 124.18,-19.8161 124.18,-17.9443 L124.18,0 L119.59,0"/>
  </g>
  <g font-size="32.9167" font-family="MS Shell Dlg 2" fill-opacity="1" font-weight="400" transform="matrix(0.999136,0,0,0.999136,0,0)" fill="#2979b9" font-style="normal" stroke="#000000" stroke-width="1" stroke-linejoin="miter" stroke-linecap="square" stroke-miterlimit="2" stroke-opacity="1"/>
  <g font-size="32.9167" font-family="MS Shell Dlg 2" fill-opacity="1" font-weight="400" transform="matrix(11.8008,0,0,11.8008,0,0)" fill="#08306b" font-style="normal" stroke="#000000" stroke-width="1" stroke-linejoin="miter" stroke-linecap="square" stroke-miterlimit="2" stroke-opacity="1">
   <rect vector-effect="non-scaling-stroke" x="2" y="50.9891" height="4" width="7"/>
  </g>
  <g font-size="32.9167" font-family="MS Shell Dlg 2" fill-opacity="1" font-weight="400" transform="matrix(0.999136,0,0,0.999136,0,0)" fill="#08306b" font-style="normal" stroke="#000000" stroke-width="1" stroke-linejoin="miter" stroke-linecap="square" stroke-miterlimit="2" stroke-opacity="1"/>
  <g font-size="32.9167" font-family="MS Shell Dlg 2" fill-opacity="1" font-weight="400" transform="matrix(0.999136,0,0,0.999136,129.809,643.787)" fill="#000000" font-style="normal" stroke="none">
   <path fill-rule="nonzero" vector-effect="none" d="M31.4697,-14.4531 L5.24902,-1.92871 L5.24902,-6.27441 L25.5859,-15.918 L5.24902,-25.5615 L5.24902,-29.9072 L31.4697,-17.3828 L31.4697,-14.4531 M75.2422,0 L57.5176,0 L57.5176,-3.71094 L64.1094,-3.71094 L64.1094,-28.0762 L57.5176,-28.0762 L57.5176,-31.3965 C60.0078,-31.3965 61.8429,-31.7505 63.0229,-32.4585 C64.203,-33.1665 64.8662,-34.5052 65.0127,-36.4746 L68.7969,-36.4746 L68.7969,-3.71094 L75.2422,-3.71094 L75.2422,0 M91.4883,-6.95801 L84.6523,9.0332 L81.0879,9.0332 L85.3848,-6.95801 L91.4883,-6.95801 M119.089,-11.5723 C119.089,-9.81445 118.808,-8.18685 118.247,-6.68945 C117.685,-5.19206 116.9,-3.89811 115.891,-2.80762 C114.865,-1.70085 113.592,-0.830078 112.07,-0.195313 C110.548,0.439453 108.843,0.756836 106.955,0.756836 C105.214,0.756836 103.5,0.565592 101.816,0.183105 C100.131,-0.199382 98.6706,-0.69987 97.4336,-1.31836 L97.4336,-6.46973 L97.7754,-6.46973 C98.1497,-6.19303 98.6868,-5.87972 99.3867,-5.52979 C100.087,-5.17985 100.86,-4.85026 101.706,-4.54102 C102.666,-4.19922 103.545,-3.93473 104.343,-3.74756 C105.14,-3.56038 106.035,-3.4668 107.028,-3.4668 C108.005,-3.4668 108.957,-3.64176 109.885,-3.9917 C110.813,-4.34163 111.61,-4.90723 112.277,-5.68848 C112.88,-6.40462 113.339,-7.24284 113.657,-8.20313 C113.974,-9.16341 114.133,-10.2946 114.133,-11.5967 C114.133,-12.8825 113.958,-13.9404 113.608,-14.7705 C113.258,-15.6006 112.749,-16.2842 112.082,-16.8213 C111.382,-17.4398 110.524,-17.8752 109.506,-18.1274 C108.489,-18.3797 107.354,-18.5059 106.101,-18.5059 C104.782,-18.5059 103.456,-18.4041 102.121,-18.2007 C100.786,-17.9972 99.7204,-17.806 98.9229,-17.627 L98.9229,-36.3525 L118.869,-36.3525 L118.869,-32.0801 L103.635,-32.0801 L103.635,-22.4121 C104.221,-22.4772 104.798,-22.526 105.368,-22.5586 C105.938,-22.5911 106.459,-22.6074 106.931,-22.6074 C108.786,-22.6074 110.357,-22.4528 111.643,-22.1436 C112.928,-21.8343 114.165,-21.2321 115.354,-20.3369 C116.558,-19.4255 117.482,-18.2861 118.125,-16.9189 C118.767,-15.5518 119.089,-13.7695 119.089,-11.5723 M171.59,0 L171.59,-15.7715 C171.59,-17.0247 171.541,-18.1844 171.443,-19.2505 C171.346,-20.3166 171.142,-21.1507 170.833,-21.7529 C170.507,-22.404 170.044,-22.8841 169.441,-23.1934 C168.839,-23.5026 168.025,-23.6572 167,-23.6572 C166.056,-23.6572 165.043,-23.3683 163.96,-22.7905 C162.878,-22.2127 161.759,-21.3786 160.604,-20.2881 C160.62,-20.0114 160.64,-19.6818 160.665,-19.2993 C160.689,-18.9168 160.701,-18.4652 160.701,-17.9443 L160.701,0 L156.111,0 L156.111,-15.7715 C156.111,-17.0247 156.063,-18.1844 155.965,-19.2505 C155.867,-20.3166 155.664,-21.1507 155.354,-21.7529 C155.029,-22.404 154.565,-22.8841 153.963,-23.1934 C153.361,-23.5026 152.547,-23.6572 151.521,-23.6572 C150.529,-23.6572 149.487,-23.348 148.396,-22.7295 C147.306,-22.111 146.248,-21.3216 145.223,-20.3613 L145.223,0 L140.633,0 L140.633,-27.2705 L145.223,-27.2705 L145.223,-24.2432 C146.427,-25.4476 147.619,-26.3794 148.799,-27.0386 C149.979,-27.6978 151.277,-28.0273 152.693,-28.0273 C154.305,-28.0273 155.733,-27.6611 156.978,-26.9287 C158.223,-26.1963 159.171,-24.9919 159.822,-23.3154 C161.206,-24.8617 162.557,-26.0335 163.875,-26.8311 C165.193,-27.6286 166.626,-28.0273 168.172,-28.0273 C169.344,-28.0273 170.41,-27.8442 171.37,-27.478 C172.33,-27.1118 173.169,-26.5218 173.885,-25.708 C174.617,-24.8779 175.183,-23.8444 175.582,-22.6074 C175.98,-21.3704 176.18,-19.8161 176.18,-17.9443 L176.18,0 L171.59,0"/>
  </g>
  <g font-size="32.9167" font-family="MS Shell Dlg 2" fill-opacity="1" font-weight="400" transform="matrix(0.999136,0,0,0.999136,0,0)" fill="#08306b" font-style="normal" stroke="#000000" stroke-width="1" stroke-linejoin="miter" stroke-linecap="square" stroke-miterlimit="2" stroke-opacity="1"/>
  <g font-size="32.9167" font-family="MS Shell Dlg 2" fill-opacity="1" font-weight="400" transform="matrix(11.8008,0,0,11.8008,0,0)" fill="#08306b" font-style="normal" stroke="#000000" stroke-width="1" stroke-linejoin="miter" stroke-linecap="square" stroke-miterlimit="2" stroke-opacity="1"/>
  <g font-size="32.9167" font-family="MS Shell Dlg 2" fill-opacity="1" font-weight="400" transform="matrix(1,0,0,1,0,0)" fill="#08306b" font-style="normal" stroke="#000000" stroke-width="1" stroke-linejoin="miter" stroke-linecap="square" stroke-miterlimit="2" stroke-opacity="1"/>
  <g font-size="32.9167" font-family="MS Shell Dlg 2" font-weight="400" transform="matrix(0.999136,0,0,0.999136,0,0)" fill="none" font-style="normal" stroke="#000000" stroke-width="1" stroke-linejoin="bevel" stroke-linecap="square" stroke-opacity="1"/>
  <g font-size="32.9167" font-family="MS Shell Dlg 2" font-weight="400" transform="matrix(11.8008,0,0,11.8008,0,0)" fill="none" font-style="normal" stroke="#000000" stroke-width="1" stroke-linejoin="bevel" stroke-linecap="square" stroke-opacity="1"/>
  <g font-size="32.9167" font-family="MS Shell Dlg 2" font-weight="400" transform="matrix(11.8008,0,0,11.8008,0,0)" fill="none" font-style="normal" stroke="#000000" stroke-width="1" stroke-linejoin="bevel" stroke-linecap="square" stroke-opacity="1"/>
  <g font-size="32.9167" font-family="MS Shell Dlg 2" font-weight="400" transform="matrix(11.8008,0,0,11.8008,0,0)" fill="none" font-style="normal" stroke="#000000" stroke-width="1" stroke-linejoin="bevel" stroke-linecap="square" stroke-opacity="1"/>
  <g font-size="32.9167" font-family="MS Shell Dlg 2" font-weight="400" transform="matrix(1,0,0,1,0,0)" fill="none" font-style="normal" stroke="#000000" stroke-width="1" stroke-linejoin="bevel" stroke-linecap="square" stroke-opacity="1"/>
 </g>
 <metadata>
  <rdf:RDF xmlns:dc="http://purl.org/dc/elements/1.1/" xmlns:rdf="http://www.w3.org/1999/02/22-rdf-syntax-ns#" xmlns:rdfs="http://www.w3.org/2000/01/rdf-schema#">
   <rdf:Description dc:description="" dc:format="image/svg+xml" dc:date="2025-05-26T18:33:09" dc:identifier="" dc:title="">
    <dc:creator>
     <rdf:Bag>
      <rdf:li>Jan Echterhoff</rdf:li>
     </rdf:Bag>
    </dc:creator>
    <dc:publisher>
     <rdf:Bag>
      <rdf:li>QGIS 3.42.2-Mnster</rdf:li>
     </rdf:Bag>
    </dc:publisher>
    <dc:subject>
     <rdf:Bag/>
    </dc:subject>
   </rdf:Description>
   <cc:Work rdf:about="">
    <dc:format>image/svg+xml</dc:format>
    <dc:title></dc:title>
    <dc:date>2025-05-26T18:33:09</dc:date>
    <dc:identifier></dc:identifier>
    <dc:description></dc:description>
    <dc:creator>
     <cc:Agent>
      <dc:title>Jan Echterhoff</dc:title>
     </cc:Agent>
    </dc:creator>
    <dc:publisher>
     <cc:Agent>
      <dc:title>QGIS 3.42.2-Mnster</dc:title>
     </cc:Agent>
    </dc:publisher>
   </cc:Work>
  </rdf:RDF>
 </metadata>
</svg>
